<?xml version="1.0" encoding="utf-8"?>
<!-- Generator: Adobe Illustrator 25.2.3, SVG Export Plug-In . SVG Version: 6.00 Build 0)  -->
<svg version="1.1" id="Camada_1" xmlns="http://www.w3.org/2000/svg" xmlns:xlink="http://www.w3.org/1999/xlink" x="0px" y="0px"
	 viewBox="0 0 300 300" style="enable-background:new 0 0 300 300;" xml:space="preserve">
<style type="text/css">
	.st0{clip-path:url(#SVGID_2_);}
	.st1{clip-path:url(#SVGID_4_);}
	.st2{fill:none;}
	.st3{font-family:'Neonoir-Bold';}
	.st4{font-size:59.8267px;}
</style>
<g id="silhueta_2_">
	<g>
		<defs>
			<rect id="SVGID_1_" x="17" y="46" width="80.6" height="203.4"/>
		</defs>
		<clipPath id="SVGID_2_">
			<use xlink:href="#SVGID_1_"  style="overflow:visible;"/>
		</clipPath>
		<g class="st0">
			<defs>
				<rect id="SVGID_3_" x="17" y="46" width="80.6" height="203.4"/>
			</defs>
			<clipPath id="SVGID_4_">
				<use xlink:href="#SVGID_3_"  style="overflow:visible;"/>
			</clipPath>
			<path class="st1" d="M66.8,46l-9.5,21.9L47.8,46c0,0,1.5,34.9-30.8,51.3c-0.2,0.1,16.7-3.7,27.5,21.2
				c10.4,47.5-33.2,80.4-24.1,130.7c18,0.6,36.8,0,36.8,0h0.4c0,0,18.8,0.6,36.8,0c9.1-50.3-34.5-83.2-24.1-130.7
				c10.8-24.9,27.7-21.1,27.5-21.2C65.3,80.9,66.8,46,66.8,46"/>
		</g>
	</g>
</g>
<rect x="114.1" y="116.7" class="st2" width="191.1" height="130"/>
<text transform="matrix(1 0 0 1 114.0852 155.1719)"><tspan x="0" y="0" class="st3 st4">Black </tspan><tspan x="0" y="71.8" class="st3 st4">Cat</tspan></text>
<g>
	<g>
		<path d="M98,246.1c4.5-6.6,7.5-14.2,9.5-22c2.2-8.5,3.7-17.5,2.5-26.3c-1.1-8.3-5.2-15.8-8.8-23.2c-0.4-0.8-0.8-1.6-1.2-2.5
			c-0.2-0.5-0.4-1-0.7-1.5c-0.1-0.2-0.2-0.4-0.3-0.6c-0.1-0.1-0.5-1.1-0.1-0.3c0.3,0.7-0.2-0.6-0.3-0.8c-0.2-0.4-0.3-0.8-0.5-1.3
			c-0.4-1-0.7-2-1-3c-0.3-0.9-0.5-1.9-0.7-2.8c-0.1-0.4-0.2-0.9-0.3-1.3c0-0.2-0.1-0.4-0.1-0.7c-0.2-0.8,0.1,1.1,0,0.3
			c-0.2-1.8-0.3-3.6-0.1-5.4c0-0.2,0-0.4,0.1-0.5c0.1-0.8-0.2,1.3-0.1,0.5c0.1-0.4,0.1-0.8,0.2-1.2c0.2-0.9,0.4-1.7,0.7-2.6
			c0.1-0.4,0.3-0.8,0.4-1.2c0,0-0.6,1.2-0.3,0.6c0.1-0.3,0.2-0.5,0.4-0.8c0.4-0.7,0.8-1.4,1.2-2.1c0.1-0.1,0.2-0.3,0.3-0.4
			c0.4-0.6-0.9,1-0.2,0.3c0.3-0.3,0.5-0.6,0.8-0.9c0.3-0.3,0.6-0.6,0.9-0.8c0.1-0.1,0.3-0.2,0.4-0.3c0.5-0.5-1.1,0.8-0.3,0.2
			c0.7-0.4,1.3-0.8,2.1-1.2c0.2-0.1,0.8-0.3-0.1,0c-1,0.4,0.2,0,0.4-0.1c0.4-0.1,2.2-0.5,0.5-0.2c1.7-0.2,3-0.5,4.2-1.8
			c1-1,1.8-2.7,1.8-4.2c-0.1-2.9-2.7-6.4-6-6c-4.6,0.6-8.6,2.4-12,5.6c-2.8,2.8-4.8,6.2-6.1,9.9c-2.7,7.8-1.4,16.4,1.4,23.9
			c1.6,4.2,3.5,8.2,5.5,12.2c0.9,1.8,1.8,3.7,2.6,5.6c0.1,0.2,0.2,0.4,0.3,0.6c0.2,0.4,0.5,0.6-0.1-0.2c0.2,0.3,0.4,0.9,0.5,1.3
			c0.4,1,0.7,2,1.1,3c0.6,1.9,1.1,3.9,1.5,5.9c0,0.1,0,0.6,0.1,0.7c-0.1-0.1-0.1-1.5,0-0.2c0,0.5,0.1,0.9,0.1,1.4
			c0.1,1.1,0.1,2.2,0,3.3c0,1-0.1,2.1-0.2,3.1c-0.1,0.6-0.1,1.1-0.2,1.7c0,0.1-0.1,0.9,0,0.2c0.1-0.8,0,0.2-0.1,0.4
			c-0.3,2-0.7,4-1.1,6c-0.9,4.3-2,8.5-3.6,12.7c-0.2,0.5-0.4,1.1-0.6,1.6c-0.1,0.1-0.3,0.8,0,0.1c0.4-0.8-0.1,0.3-0.2,0.5
			c-0.4,1-0.9,2-1.4,2.9c-1,2-2.2,3.9-3.5,5.8c-1.8,2.6-0.6,6.8,2.2,8.2C92.8,249.9,96.1,248.9,98,246.1L98,246.1z"/>
	</g>
</g>
</svg>
